<svg width="380" height="380" viewBox="0 0 380 380" fill="none" xmlns="http://www.w3.org/2000/svg">
    <circle cx="190" cy="190" r="190" fill="#F9C9B6" />
    <mask id="mask0" mask-type="alpha" maskUnits="userSpaceOnUse" x="0" y="0" width="380" height="380">
        <circle cx="190" cy="190" r="190" fill="#FFEBA4" />
    </mask>
    <g mask="url(#mask0)">
        <path
            d="M244.049 374.418C229.649 354.325 218.382 315.479 217.049 296.055L148.549 266.418L120.049 374.418H244.049Z"
            fill="white" stroke="black" stroke-width="4" />
        <mask id="mask1" mask-type="alpha" maskUnits="userSpaceOnUse" x="120" y="266" width="125" height="118">
            <path
                d="M244.049 383.918C229.649 363.918 218.382 315.252 217.049 295.918L148.549 266.418L120.049 383.918H244.049Z"
                fill="#AC6651" />
        </mask>
        <g mask="url(#mask1)">
            <g style="mix-blend-mode:multiply">
                <ellipse cx="214.049" cy="264.418" rx="59" ry="54" fill="black" />
            </g>
        </g>
        <mask id="path-6-inside-1" fill="white">
            <path fill-rule="evenodd" clip-rule="evenodd"
                d="M118.386 217.783C118.127 224.949 118.827 232.293 120.588 239.643C130.591 281.396 170.121 310.186 210.947 297.934C251.773 285.681 275.084 246.776 265.081 205.023C264.702 203.442 264.279 201.882 263.814 200.346L258.954 167.463C260.038 158.529 259.578 149.254 257.358 139.988C247.355 98.2354 205.398 72.4975 163.645 82.5011C121.892 92.5048 96.1537 134.462 106.157 176.215C108.08 184.241 111.184 191.675 115.24 198.378L118.386 217.783Z" />
        </mask>
        <path fill-rule="evenodd" clip-rule="evenodd"
            d="M118.386 217.783C118.127 224.949 118.827 232.293 120.588 239.643C130.591 281.396 170.121 310.186 210.947 297.934C251.773 285.681 275.084 246.776 265.081 205.023C264.702 203.442 264.279 201.882 263.814 200.346L258.954 167.463C260.038 158.529 259.578 149.254 257.358 139.988C247.355 98.2354 205.398 72.4975 163.645 82.5011C121.892 92.5048 96.1537 134.462 106.157 176.215C108.08 184.241 111.184 191.675 115.24 198.378L118.386 217.783Z"
            fill="white" />
        <path
            d="M118.386 217.783L122.385 217.928L122.399 217.533L122.336 217.143L118.386 217.783ZM120.588 239.643L116.697 240.575L120.588 239.643ZM210.947 297.934L209.797 294.101L209.797 294.101L210.947 297.934ZM265.081 205.023L268.971 204.091L268.971 204.091L265.081 205.023ZM263.814 200.346L259.856 200.931L259.899 201.223L259.985 201.505L263.814 200.346ZM258.954 167.463L254.982 166.98L254.917 167.515L254.996 168.048L258.954 167.463ZM257.358 139.988L253.467 140.921L253.467 140.921L257.358 139.988ZM163.645 82.5011L162.712 78.6103L163.645 82.5011ZM106.157 176.215L110.048 175.283L110.048 175.283L106.157 176.215ZM115.24 198.378L119.19 197.738L119.065 196.971L118.663 196.306L115.24 198.378ZM114.388 217.638C114.115 225.164 114.851 232.871 116.697 240.575L124.478 238.711C122.803 231.716 122.138 224.734 122.385 217.928L114.388 217.638ZM116.697 240.575C127.108 284.029 168.577 314.827 212.097 301.766L209.797 294.101C171.666 305.545 134.075 278.763 124.478 238.711L116.697 240.575ZM212.097 301.766C254.891 288.923 279.485 247.973 268.971 204.091L261.19 205.956C270.683 245.58 248.655 282.44 209.797 294.101L212.097 301.766ZM268.971 204.091C268.574 202.433 268.131 200.798 267.643 199.187L259.985 201.505C260.427 202.966 260.829 204.45 261.19 205.956L268.971 204.091ZM254.996 168.048L259.856 200.931L267.772 199.761L262.911 166.878L254.996 168.048ZM262.925 167.945C264.066 158.545 263.582 148.791 261.249 139.056L253.467 140.921C255.575 149.716 256.01 158.512 254.982 166.98L262.925 167.945ZM261.249 139.056C250.731 95.1544 206.614 68.0918 162.712 78.6103L164.577 86.3919C204.181 76.9031 243.979 101.316 253.467 140.921L261.249 139.056ZM162.712 78.6103C118.811 89.1288 91.7481 133.245 102.267 177.147L110.048 175.283C100.559 135.678 124.973 95.8808 164.577 86.3919L162.712 78.6103ZM102.267 177.147C104.287 185.58 107.55 193.398 111.817 200.449L118.663 196.306C114.818 189.953 111.874 182.902 110.048 175.283L102.267 177.147ZM122.336 217.143L119.19 197.738L111.291 199.018L114.437 218.423L122.336 217.143Z"
            fill="black" mask="url(#path-6-inside-1)" />
        <path
            d="M322.366 382.207H49.4563C49.4907 382.136 49.5255 382.066 49.5604 381.994C54.1052 372.739 62.4899 355.663 73.4025 340.385C79.5961 331.714 86.5303 323.731 93.9416 318.116C101.354 312.5 109.061 309.384 116.892 310.069C131.946 311.387 145.355 319.629 158.817 327.904C160.092 328.688 161.368 329.473 162.646 330.251C177.131 339.079 192.005 347.275 208.365 343.688C213.899 342.475 217.629 339.878 219.976 336.523C222.29 333.216 223.122 329.373 223.266 325.86C223.41 322.343 222.871 319.018 222.311 316.6C222.049 315.469 221.779 314.522 221.564 313.828C225.189 310.179 229.027 308.054 232.989 307.097C237.284 306.06 241.876 306.36 246.707 307.789C256.437 310.667 266.847 318.041 277.007 327.523C295.621 344.895 312.7 368.667 322.366 382.207Z"
            fill="#F4D150" stroke="black" stroke-width="4.27431" />
        <circle cx="228.293" cy="184.754" r="26" stroke="black" stroke-width="4" />
        <circle cx="161.293" cy="193.754" r="26" stroke="black" stroke-width="4" />
        <path
            d="M203.293 191.754C203.293 189.632 202.45 187.597 200.95 186.097C199.45 184.597 197.415 183.754 195.293 183.754C193.171 183.754 191.136 184.597 189.636 186.097C188.136 187.597 187.293 189.632 187.293 191.754"
            stroke="black" stroke-width="4" />
        <path d="M135.793 195.754L105.793 201.254" stroke="black" stroke-width="4" />
        <path
            d="M146.797 246.584C139.513 245.87 130.814 236.885 130.814 236.885C130.814 236.885 137.65 258.852 149.267 265.234C159.33 270.762 167.668 271.205 178.63 267.701C188.62 264.508 199.701 251.126 199.701 251.126C199.701 251.126 217.466 262.217 229.765 260.93C241.339 259.718 249.032 256.042 255.929 246.723C262.435 237.932 262.152 219.493 262.152 219.493C262.152 219.493 256.206 230.085 249.599 232.971C237.496 238.257 231.626 221.208 218.537 219.719C205.447 218.23 196.998 230.717 196.998 230.717C196.998 230.717 181.638 220.935 170.504 226.08C159.369 231.224 159.002 247.78 146.797 246.584Z"
            fill="#AC6651" />
        <path
            d="M268.484 96.3724C257.543 134.782 161.017 133.337 141.644 131.942C90.381 134.074 113.22 194.926 120.366 226.028C112.965 226.477 110.482 237.277 87.1688 165.354C68.5183 107.815 135.191 78.364 183.736 70.2323C232.28 62.1006 251.714 47.1288 251.714 47.1288C271.327 56.8896 274.978 73.5775 268.484 96.3724Z"
            fill="#77311D" />
        <path d="M259.005 170.462L244.201 115.968L257.183 107.615C267.186 145.418 265.99 166.931 259.005 170.462Z"
            fill="#77311D" />
        <path
            d="M112.836 212.814C116.845 185.335 101.962 185.114 92.7335 183.185L98.3339 138.412L139.383 144.263C140.171 144.294 140.986 144.408 141.826 144.612L139.383 144.263C120.344 143.521 116.264 191.501 123.859 214.684L112.836 212.814Z"
            fill="#77311D" />
        <path
            d="M84.169 103.104C93.3114 99.2964 103.546 102.618 107.52 104.755L94.7112 118.751C98.0873 114.125 89.0898 106.392 84.169 103.104Z"
            fill="#77311D" />
        <path
            d="M69.5022 121.557C81.364 115.224 92.4968 117.97 96.5804 120.135L91.4661 135.443C90.6019 127.002 76.4634 122.668 69.5022 121.557Z"
            fill="#77311D" />
        <path
            d="M109.756 180.265C107.311 180.062 104.77 180.251 102.266 180.851C92.0615 183.295 85.3031 191.598 89.071 203.035C92.9958 214.948 101.304 217.586 111.508 215.141C112.644 214.869 113.732 214.503 114.765 214.054C115.892 213.563 116.954 212.974 117.943 212.299"
            stroke="#171921" stroke-width="8" />
        <path
            d="M118.383 211.989C116.386 213.437 114.069 214.528 111.508 215.141C101.304 217.586 92.9958 214.948 89.071 203.035C85.3031 191.598 92.0615 183.295 102.266 180.851C105.317 180.12 108.424 179.999 111.344 180.455L118.383 211.989Z"
            fill="white" />
        <path d="M108.544 188.088C104.227 187.236 95.4443 188.346 94.8482 199.595" stroke="#171921" stroke-width="4" />
        <path d="M98.4492 191.02C100.983 192.298 106.323 196.846 107.409 204.812" stroke="#171921" stroke-width="4" />
        <circle cx="114.505" cy="210.823" r="4" transform="rotate(-13.4708 114.505 210.823)" fill="#F4D150" />
        <circle cx="115.244" cy="209.618" r="1" transform="rotate(-13.4708 115.244 209.618)" fill="#FFEDEF" />
    </g>
</svg>